<?xml version="1.0" encoding="UTF-8"?>
<svg version="1.1" xmlns="http://www.w3.org/2000/svg" width="32" height="32">
<path d="M0 0 C1.65 0 3.3 0 5 0 C5.33 0.99 5.66 1.98 6 3 C6.73605469 3.0515625 7.47210938 3.103125 8.23046875 3.15625 C16.02520007 4.06237465 16.02520007 4.06237465 18.84375 6.7734375 C21.22359233 10.49540021 22 12.47861091 22 17 C24.31 17 26.62 17 29 17 C29 21.95 29 26.9 29 32 C21.08 32 13.16 32 5 32 C5 27.05 5 22.1 5 17 C6.65 16.67 8.3 16.34 10 16 C5.79772953 13.02766235 1.78006608 10.91202643 -3 9 C-2.44271087 5.65626525 -1.64826111 2.96687001 0 0 Z M2 2 C1.01 3.485 1.01 3.485 0 5 C0.33 5.99 0.66 6.98 1 8 C1.66 7.01 2.32 6.02 3 5 C2.67 4.01 2.34 3.02 2 2 Z M5 5 C4.67 5.99 4.34 6.98 4 8 C6.48952921 10.66735273 8.63408134 12.55746343 12 14 C11.34 12.35 10.68 10.7 10 9 C11.65 8.67 13.3 8.34 15 8 C11.73454239 6.11608215 8.71888239 5.50712033 5 5 Z M15 12 C15 13.65 15 15.3 15 17 C16.65 16.67 18.3 16.34 20 16 C19.34 14.68 18.68 13.36 18 12 C17.01 12 16.02 12 15 12 Z M7 19 C7 19.66 7 20.32 7 21 C8.32 21 9.64 21 11 21 C11 21.66 11 22.32 11 23 C9.68 23 8.36 23 7 23 C7 25.31 7 27.62 7 30 C13.6 30 20.2 30 27 30 C27 27.69 27 25.38 27 23 C23.04 23 19.08 23 15 23 C15 22.34 15 21.68 15 21 C18.96 21 22.92 21 27 21 C27 20.34 27 19.68 27 19 C20.4 19 13.8 19 7 19 Z " fill="#ffffff" transform="translate(3,0)"/>
<path d="M0 0 C4.62 0 9.24 0 14 0 C14 1.65 14 3.3 14 5 C9.38 5 4.76 5 0 5 C0 3.35 0 1.7 0 0 Z M2 2 C2 2.33 2 2.66 2 3 C5.3 3 8.6 3 12 3 C12 2.67 12 2.34 12 2 C8.7 2 5.4 2 2 2 Z " fill="#ffffff" transform="translate(13,24)"/>
<path d="M0 0 C0.66 0 1.32 0 2 0 C2 0.66 2 1.32 2 2 C1.34 2 0.68 2 0 2 C0 1.34 0 0.68 0 0 Z " fill="#ffffff" transform="translate(15,21)"/>
</svg>
